<svg xmlns="http://www.w3.org/2000/svg" viewBox="0 0 209.08 60.48"><defs><style>.cls-1,.cls-2{fill:#fff;}.cls-2{fill-rule:evenodd;}</style></defs><title>SHQir</title><g id="Signature"><path class="cls-1" d="M83.77,51V37.87h-.1c-.46.42-2.19.46-2.92.46H79.49v.1c1.46.9,1.26,2.23,1.26,3.88v5.55c0,2.78-2.72,4.72-4.92,4.72-2.89,0-4.09-2-4.09-5.37V37.87h-.1c-.47.42-2.2.46-2.93.46H67.45v.11c1.46.89,1.26,2.22,1.26,3.87v5.53c0,5.07,2.2,7.47,6.12,7.47,2.33,0,4.72-.83,5.92-2.8V54.9H85v-.1C83.58,54,83.77,52.63,83.77,51Z"/><path class="cls-1" d="M90.42,44a4.22,4.22,0,0,1,4.29-3.68A3.91,3.91,0,0,1,99,44Zm12.08,2.09c.13-4.62-3-8.11-7.49-8.11-5,0-8.32,3.59-8.32,8.58s3.89,8.86,9.55,8.86a11.33,11.33,0,0,0,4.6-.89l1.66-3.37h-.1A8.34,8.34,0,0,1,96.94,53c-3.76,0-6.59-2.57-6.65-7Z"/><path class="cls-1" d="M105.14,30.25c.8,0,2.42-.05,2.91-.54h.1V52.42a10.31,10.31,0,0,0,2.75.43c3.63,0,5.72-2.54,5.72-6.09s-1.62-6.16-5-6.16a5.38,5.38,0,0,0-2.78.79l1.79-3.06a6.73,6.73,0,0,1,2.34-.39c3.78,0,7,3.27,7,8.18,0,5.62-3.8,9.26-9.82,9.26a38.64,38.64,0,0,1-6-.65v-.11c1.09-.51,1-1.7,1-2.88V35.23c0-1.65.2-4-1.23-4.87v-.11Z"/><path class="cls-1" d="M125.9,44a4.22,4.22,0,0,1,4.29-3.68A3.91,3.91,0,0,1,134.48,44ZM138,46.05c.13-4.62-3-8.11-7.49-8.11-5,0-8.32,3.59-8.32,8.58s3.89,8.86,9.55,8.86a11.25,11.25,0,0,0,4.59-.89L138,51.12h-.1A8.34,8.34,0,0,1,132.42,53c-3.76,0-6.59-2.57-6.65-7Z"/><path class="cls-1" d="M152.86,42.05h-.1a5.25,5.25,0,0,0-4.06-1.77c-3.23,0-5.55,2.45-5.55,5.88A6.76,6.76,0,0,0,150.06,53a8.19,8.19,0,0,0,4.86-1.77h.1l-1.73,3.4a11.59,11.59,0,0,1-4.39.71c-5.12,0-9.13-3.61-9.13-8.29,0-6.19,4.47-9.15,9.5-9.15a15.45,15.45,0,0,1,3.59.42Z"/><path class="cls-2" d="M98.35,35v-3.6A15.34,15.34,0,0,0,92.79,36v1.4A15.47,15.47,0,0,1,98.35,35Z"/><path class="cls-1" d="M53.76,52.91c-5,0-8.52-5.67-8.52-10.49v-.54c.06-4.67,3.08-9,8.35-9,5.55,0,8.41,5.24,8.45,10.21v.52C62,48.87,58.75,52.91,53.76,52.91ZM71,58.41c-3.71.61-7.28-.56-11.07-4.89,3.66-1.84,5.93-6.42,5.93-10.67v-.53A11.82,11.82,0,0,0,53.79,30.24,12.22,12.22,0,0,0,41.44,42.58v.49c0,7.13,5.29,12.43,11.78,12.43A11.36,11.36,0,0,0,56,55.14c4.25,4,8,5.68,11.32,5.28a6.08,6.08,0,0,0,4.17-2.08Z"/><path class="cls-1" d="M8,2.62a5.21,5.21,0,0,0-2.21-.48c-1.2,0-1.81.37-1.81,1s.68.76,1.71,1.25C7.14,5.08,7.81,5.67,7.81,7c0,2.06-1.64,3.51-4.54,3.51A9.55,9.55,0,0,1,0,10l.56-2a5.21,5.21,0,0,0,2.31.61C4.25,8.55,5,8.05,5,7.32s-.79-1-2.13-1.56a2.36,2.36,0,0,1-1.65-2.3C1.25,1.63,2.84.28,5.36.28A9.89,9.89,0,0,1,8.63.72Z"/><path class="cls-1" d="M17.45,6.24c0,2.48-1.81,4.24-4.69,4.24C10.43,10.48,9,9.19,9,7.17c0-2.59,1.75-4.34,4.65-4.34C16,2.83,17.45,4.12,17.45,6.24ZM13.54,4.49c-1,0-1.94,1.1-1.94,2.65A1.46,1.46,0,0,0,13,8.77c1,0,1.9-1.1,1.9-2.65C14.9,5.11,14.35,4.49,13.54,4.49Z"/><path class="cls-1" d="M24.77,5a3.71,3.71,0,0,0-1.55-.38A2,2,0,0,0,21,6.74a1.7,1.7,0,0,0,1.87,1.78,3.43,3.43,0,0,0,1.44-.34L24,10.1a8.5,8.5,0,0,1-2.07.29A3.26,3.26,0,0,1,18.33,7c0-2.45,1.76-4.21,4.59-4.21a6.43,6.43,0,0,1,2.42.47Z"/><path class="cls-1" d="M29.64,3l-1.58,7.25H25.6L27.17,3ZM30.16.49l-.25,1.3H27.44l.24-1.3Z"/><path class="cls-1" d="M32.65,7.29c.1,1.07.69,1.57,1.86,1.57A6.32,6.32,0,0,0,37,8.31l-.28,1.79a9.23,9.23,0,0,1-2.67.4c-2.28,0-3.64-1.33-3.64-3.39a4.6,4.6,0,0,1,1.3-3.18A4.44,4.44,0,0,1,34.9,2.79,2.82,2.82,0,0,1,38,5.91a6.56,6.56,0,0,1-.17,1.38ZM36,5.56a1.21,1.21,0,0,0-1.27-1.31c-.78,0-1.42.61-1.7,1.65h2.94C35.93,5.79,36,5.67,36,5.56ZM34.86,0H37.5V.31L35.17,2H33.51V1.86Z"/><path class="cls-1" d="M43.25,3H45l-.36,1.73H42.89l-.54,2.52a3.38,3.38,0,0,0-.1.63c0,.52.23.75.79.75a3.15,3.15,0,0,0,.83-.14l-.36,1.73a8.9,8.9,0,0,1-1.4.16,2.08,2.08,0,0,1-2.36-2.2,4.18,4.18,0,0,1,.07-.72l.58-2.73H38.92L39.28,3h1.48l.37-1.72,2.64-.7Z"/><path class="cls-1" d="M47.48,7.29c.1,1.07.69,1.57,1.86,1.57a6.32,6.32,0,0,0,2.46-.55l-.28,1.79a9.25,9.25,0,0,1-2.68.4c-2.28,0-3.63-1.33-3.63-3.39a4.6,4.6,0,0,1,1.3-3.18,4.42,4.42,0,0,1,3.22-1.14,2.82,2.82,0,0,1,3.11,3.12,6,6,0,0,1-.17,1.38Zm3.29-1.73A1.2,1.2,0,0,0,49.5,4.25c-.77,0-1.42.61-1.7,1.65h2.94A2,2,0,0,0,50.77,5.56ZM49.69,0h2.63V.31L50,2H48.34V1.86Z"/><path class="cls-1" d="M10,14.57,7.94,24.34H5.69L6,23.13a3.23,3.23,0,0,1-2.65,1.43c-1.72,0-2.83-1.23-2.83-3.23,0-2.63,1.59-4.42,3.84-4.42A2.55,2.55,0,0,1,6.7,18.33l.8-3.76ZM4.89,18.78c-1,0-1.82,1-1.82,2.49a1.27,1.27,0,0,0,1.25,1.41,2.21,2.21,0,0,0,1.92-2.42A1.36,1.36,0,0,0,4.89,18.78Z"/><path class="cls-1" d="M14.94,14.59l-2.08,3.83H10.91l1.55-3.83Z"/><path class="cls-1" d="M18.67,14.57,18,18a3.38,3.38,0,0,1,2.42-1.07,2.24,2.24,0,0,1,2.36,2.54,10.64,10.64,0,0,1-.26,2l-.61,2.88H19.35l.77-3.63a3.36,3.36,0,0,0,.09-.72c0-.69-.36-1.07-.92-1.07-1,0-1.68.79-2,2.37l-.65,3.05H14.09l2.06-9.77Z"/><path class="cls-1" d="M30.86,22.51a13.29,13.29,0,0,0-.29,1.83h-2.1l.14-1.09A2.86,2.86,0,0,1,26.1,24.5a2.16,2.16,0,0,1-2.42-2.16c0-1.61,1.49-2.63,4.27-2.63.36,0,.76,0,1.17.07a2,2,0,0,0,0-.24c0-.73-.48-1.12-1.39-1.12a5.16,5.16,0,0,0-2.37.55l.3-1.69a6.88,6.88,0,0,1,2.41-.43c2.18,0,3.36.92,3.36,2.31a8.09,8.09,0,0,1-.15,1.3ZM28.1,21c-1.35,0-2.05.39-2.05,1.12A.83.83,0,0,0,27,23,2,2,0,0,0,28.82,21,5.94,5.94,0,0,0,28.1,21Z"/><path class="cls-1" d="M36.79,14.57,36,18a3.16,3.16,0,0,1,2.41-1.12c1.7,0,2.81,1.23,2.81,3.23,0,2.62-1.57,4.41-3.83,4.41a2.69,2.69,0,0,1-2.54-1.66l-.36,1.46H32.24l2-9.77Zm.62,4.21a2.21,2.21,0,0,0-1.9,2.37,1.35,1.35,0,0,0,1.34,1.53c1,0,1.81-1.05,1.81-2.45C38.66,19.33,38.17,18.78,37.41,18.78Z"/><path class="cls-1" d="M46.06,17.09l-1.58,7.25H42l1.58-7.25Zm.52-2.52-.26,1.3H43.86l.24-1.3Z"/><path class="cls-1" d="M51.28,17.11h1.79l-.37,1.73H50.91l-.53,2.52a3.38,3.38,0,0,0-.1.63c0,.52.22.75.79.75a3.15,3.15,0,0,0,.83-.14l-.37,1.73a8.68,8.68,0,0,1-1.39.16,2.09,2.09,0,0,1-2.37-2.2,4.18,4.18,0,0,1,.07-.72l.58-2.73H46.94l.37-1.73h1.48l.36-1.72,2.65-.7Z"/><path class="cls-1" d="M60.21,22.51a13.18,13.18,0,0,0-.3,1.83h-2.1L58,23.25a2.85,2.85,0,0,1-2.5,1.25A2.16,2.16,0,0,1,53,22.34c0-1.61,1.5-2.63,4.27-2.63.37,0,.76,0,1.17.07a2,2,0,0,0,0-.24c0-.73-.47-1.12-1.39-1.12a5.22,5.22,0,0,0-2.37.55l.3-1.69a6.88,6.88,0,0,1,2.41-.43c2.18,0,3.36.92,3.36,2.31a7.09,7.09,0,0,1-.15,1.3ZM57.45,21c-1.36,0-2.06.39-2.06,1.12a.84.84,0,0,0,.93.82A2,2,0,0,0,58.16,21,5.86,5.86,0,0,0,57.45,21Z"/><path class="cls-1" d="M66.11,17.11h1.78l-.36,1.73H65.74l-.54,2.52a3.1,3.1,0,0,0-.09.63c0,.52.22.75.78.75a3.28,3.28,0,0,0,.84-.14l-.37,1.73a8.78,8.78,0,0,1-1.4.16,2.08,2.08,0,0,1-2.36-2.2,4.18,4.18,0,0,1,.07-.72l.58-2.73H61.77l.36-1.73h1.48L64,15.39l2.65-.7Z"/><path class="cls-1" d="M72,17.09,70.4,24.34H67.94l1.57-7.25Zm.52-2.52-.26,1.3H69.78l.24-1.3Z"/><path class="cls-1" d="M81.13,20.32c0,2.48-1.8,4.24-4.69,4.24-2.32,0-3.72-1.29-3.72-3.31,0-2.59,1.75-4.34,4.65-4.34C79.72,16.91,81.13,18.21,81.13,20.32Zm-3.9-1.75c-1,0-1.94,1.1-1.94,2.65a1.46,1.46,0,0,0,1.39,1.63c1,0,1.9-1.1,1.9-2.65C78.58,19.19,78,18.57,77.23,18.57Z"/><path class="cls-1" d="M89.49,24.34H87l.76-3.63a3.36,3.36,0,0,0,.09-.72c0-.69-.36-1.07-.92-1.07-1,0-1.66.79-2,2.37l-.65,3.05H81.72L83.27,17h2.27l-.29,1.29A3.66,3.66,0,0,1,88,16.92a2.24,2.24,0,0,1,2.37,2.54,10.84,10.84,0,0,1-.27,2Z"/><path class="cls-1" d="M172.16,35c-1.27.4-1.28-.74-1.28-.74,1.12.2,1.23-.74,1.23-.74h-2.24V32.49h1.06s-.18-1.41-1.22-1.41-1.1,1.06-.93,1.51c-.48.08-1.19-.76-1.19-1.74a1.87,1.87,0,0,1,1.87-1.92c1.42,0,2.48,1.63,2.48,3.56h.43a6.45,6.45,0,0,0-.1-1.77c-.3-1.34-1-2.12-1-3,0-1.57.92-1.82,1.68-3.19.75,1.37,1.7,1.62,1.67,3.19,0,.9-.67,1.68-1,3a6.45,6.45,0,0,0-.1,1.77H174c0-1.93,1.06-3.56,2.48-3.56a1.87,1.87,0,0,1,1.87,1.92c0,1-.71,1.82-1.19,1.74.18-.45,0-1.51-.92-1.51S175,32.49,175,32.49h1.07v1.06h-2.25a.94.94,0,0,0,1.24.74s0,1.14-1.28.74a1.73,1.73,0,0,1-.81,1.38A1.73,1.73,0,0,1,172.16,35ZM183,24.29H162.89V36.64H183Z"/><path class="cls-1" d="M198.19,35c-1.27.4-1.28-.74-1.28-.74,1.13.2,1.24-.74,1.24-.74H195.9V32.49H197s-.17-1.41-1.22-1.41-1.1,1.06-.92,1.51c-.48.08-1.19-.76-1.19-1.74a1.87,1.87,0,0,1,1.87-1.92c1.42,0,2.48,1.63,2.48,3.56h.43a6.45,6.45,0,0,0-.1-1.77c-.31-1.34-1-2.12-1-3,0-1.57.92-1.82,1.67-3.19.76,1.37,1.7,1.62,1.68,3.19,0,.9-.68,1.68-1,3a6,6,0,0,0-.1,1.77H200c0-1.93,1.06-3.56,2.48-3.56a1.87,1.87,0,0,1,1.87,1.92c0,1-.71,1.82-1.19,1.74.17-.45,0-1.51-.92-1.51S201,32.49,201,32.49h1.06v1.06h-2.24s.11.94,1.23.74c0,0,0,1.14-1.28.74a.93.93,0,1,1-1.62,0Zm10.89-10.74H188.93V36.64h20.15Z"/><path class="cls-1" d="M172.16,53.29c-1.27.4-1.28-.74-1.28-.74a.93.93,0,0,0,1.23-.75h-2.24v-1h1.06s-.18-1.42-1.22-1.42-1.1,1.07-.93,1.51c-.48.08-1.19-.75-1.19-1.73a1.87,1.87,0,0,1,1.87-1.92c1.42,0,2.48,1.63,2.48,3.56h.43a6.52,6.52,0,0,0-.1-1.78c-.3-1.33-1-2.11-1-3,0-1.57.92-1.82,1.68-3.19.75,1.37,1.7,1.62,1.67,3.19,0,.91-.67,1.69-1,3a6.52,6.52,0,0,0-.1,1.78H174c0-1.93,1.06-3.56,2.48-3.56a1.87,1.87,0,0,1,1.87,1.92c0,1-.71,1.81-1.19,1.73.18-.44,0-1.51-.92-1.51S175,50.75,175,50.75h1.07v1h-2.25a1,1,0,0,0,1.24.75s0,1.14-1.28.74a1.71,1.71,0,0,1-.81,1.37A1.71,1.71,0,0,1,172.16,53.29ZM183,42.54H162.89V54.9H183Z"/><path class="cls-1" d="M198.19,53.29c-1.27.4-1.28-.74-1.28-.74,1.13.2,1.24-.75,1.24-.75H195.9v-1H197s-.17-1.42-1.22-1.42-1.1,1.07-.92,1.51c-.48.08-1.19-.75-1.19-1.73a1.87,1.87,0,0,1,1.87-1.92c1.42,0,2.48,1.63,2.48,3.56h.43a6.52,6.52,0,0,0-.1-1.78c-.31-1.33-1-2.11-1-3,0-1.57.92-1.82,1.67-3.19.76,1.37,1.7,1.62,1.68,3.19,0,.91-.68,1.69-1,3a6.09,6.09,0,0,0-.1,1.78H200c0-1.93,1.06-3.56,2.48-3.56a1.87,1.87,0,0,1,1.87,1.92c0,1-.71,1.81-1.19,1.73.17-.44,0-1.51-.92-1.51S201,50.75,201,50.75h1.06v1h-2.24a.93.93,0,0,0,1.23.75s0,1.14-1.28.74a.92.92,0,1,1-1.62,0Zm10.89-10.75H188.93V54.9h20.15Z"/></g></svg>